<svg width="114" height="40" viewBox="0 0 114 40" fill="none" xmlns="http://www.w3.org/2000/svg">
<path d="M22.0246 32.1116C22.0605 28.4402 21.1297 25.4546 19.9457 25.443C18.7616 25.4314 17.7727 28.3983 17.7368 32.0697C17.7009 35.7411 18.6317 38.7268 19.8157 38.7383C20.9998 38.7499 21.9888 35.783 22.0246 32.1116Z" fill="#2F6A62"/>
<path d="M15.1576 31.2777C17.1728 28.2086 18.0041 25.1937 17.0144 24.5438C16.0245 23.8939 13.5884 25.855 11.5732 28.9241C9.55797 31.9933 8.72669 35.0081 9.71645 35.6581C10.7063 36.308 13.1423 34.3469 15.1576 31.2777Z" fill="#2F6A62"/>
<path d="M9.82334 26.8744C13.1781 25.3822 15.5074 23.2955 15.0261 22.2136C14.5449 21.1317 11.4353 21.4643 8.08062 22.9565C4.72593 24.4487 2.39655 26.5354 2.87779 27.6174C3.35902 28.6993 6.46865 28.3666 9.82334 26.8744Z" fill="#2F6A62"/>
<path d="M14.6236 19.1796C14.8037 18.0093 12.008 16.6078 8.37917 16.0492C4.75028 15.4907 1.66249 15.9867 1.48236 17.157C1.30223 18.3273 4.09797 19.7287 7.72684 20.2873C11.3557 20.8459 14.4435 20.3499 14.6236 19.1796Z" fill="#2F6A62"/>
<path d="M15.9265 16.3916C16.7106 15.5044 15.1161 12.8141 12.3649 10.3826C9.61381 7.95121 6.74791 6.6994 5.96376 7.58665C5.17962 8.47392 6.77418 11.1642 9.52533 13.5957C12.2765 16.0271 15.1424 17.2789 15.9265 16.3916Z" fill="#2F6A62"/>
<path d="M18.5211 14.7623C19.6605 14.4399 19.7737 11.3145 18.774 7.78164C17.7743 4.24877 16.0402 1.64618 14.9009 1.96859C13.7615 2.29099 13.6483 5.41631 14.648 8.94921C15.6477 12.482 17.3818 15.0847 18.5211 14.7623Z" fill="#2F6A62"/>
<path d="M25.5668 9.05912C26.636 5.54664 26.5845 2.4197 25.4517 2.07489C24.3189 1.73007 22.5338 4.29796 21.4646 7.81043C20.3955 11.3229 20.447 14.4498 21.5798 14.7946C22.7126 15.1394 24.4977 12.5716 25.5668 9.05912Z" fill="#2F6A62"/>
<path d="M30.6011 13.8052C33.3993 11.428 35.0461 8.76935 34.2794 7.86698C33.5128 6.96458 30.6229 8.16015 27.8249 10.5373C25.0267 12.9145 23.3799 15.5731 24.1465 16.4755C24.9132 17.3779 27.803 16.1824 30.6011 13.8052Z" fill="#2F6A62"/>
<path d="M32.2657 20.5215C35.9049 20.0346 38.7277 18.6885 38.5707 17.5149C38.4137 16.3413 35.3363 15.7845 31.6971 16.2713C28.058 16.7582 25.2351 18.1043 25.3921 19.278C25.5492 20.4516 28.6265 21.0084 32.2657 20.5215Z" fill="#2F6A62"/>
<path d="M36.9603 27.9528C37.4628 26.8806 35.175 24.7484 31.8504 23.1903C28.5258 21.6322 25.4234 21.2384 24.9209 22.3106C24.4184 23.3828 26.7062 25.515 30.0308 27.0731C33.3554 28.6311 36.4579 29.025 36.9603 27.9528Z" fill="#2F6A62"/>
<path d="M29.9671 35.8639C30.9695 35.2337 30.1978 32.203 28.2435 29.0947C26.2892 25.9865 23.8922 23.9778 22.8898 24.608C21.8874 25.2382 22.6591 28.269 24.6134 31.3772C26.5678 34.4854 28.9647 36.4942 29.9671 35.8639Z" fill="#2F6A62"/>
<path d="M55.456 28.168C53.872 28.168 52.416 27.8 51.088 27.064C49.76 26.312 48.704 25.28 47.92 23.968C47.152 22.64 46.768 21.144 46.768 19.48C46.768 17.816 47.152 16.328 47.92 15.016C48.704 13.688 49.76 12.656 51.088 11.92C52.416 11.184 53.872 10.816 55.456 10.816C57.056 10.816 58.512 11.184 59.824 11.92C61.152 12.656 62.2 13.688 62.968 15.016C63.736 16.328 64.12 17.816 64.12 19.48C64.12 21.144 63.736 22.64 62.968 23.968C62.2 25.28 61.152 26.312 59.824 27.064C58.496 27.8 57.04 28.168 55.456 28.168ZM55.456 23.8C56.656 23.8 57.6 23.408 58.288 22.624C58.992 21.84 59.344 20.792 59.344 19.48C59.344 18.136 58.992 17.08 58.288 16.312C57.6 15.528 56.656 15.136 55.456 15.136C54.24 15.136 53.288 15.528 52.6 16.312C51.912 17.08 51.568 18.136 51.568 19.48C51.568 20.808 51.912 21.864 52.6 22.648C53.288 23.416 54.24 23.8 55.456 23.8ZM70.9386 16.408C71.3066 15.768 71.8266 15.272 72.4986 14.92C73.1706 14.552 73.9626 14.368 74.8746 14.368C75.9466 14.368 76.9146 14.648 77.7786 15.208C78.6586 15.768 79.3466 16.568 79.8426 17.608C80.3546 18.648 80.6106 19.864 80.6106 21.256C80.6106 22.648 80.3546 23.872 79.8426 24.928C79.3466 25.968 78.6586 26.768 77.7786 27.328C76.9146 27.888 75.9466 28.168 74.8746 28.168C73.9626 28.168 73.1706 27.992 72.4986 27.64C71.8266 27.272 71.3066 26.768 70.9386 26.128V28H66.2346V10.24H70.9386V16.408ZM75.8346 21.256C75.8346 20.376 75.5946 19.696 75.1146 19.216C74.6506 18.72 74.0746 18.472 73.3866 18.472C72.6986 18.472 72.1146 18.72 71.6346 19.216C71.1706 19.712 70.9386 20.392 70.9386 21.256C70.9386 22.136 71.1706 22.824 71.6346 23.32C72.1146 23.816 72.6986 24.064 73.3866 24.064C74.0746 24.064 74.6506 23.816 75.1146 23.32C75.5946 22.808 75.8346 22.12 75.8346 21.256ZM84.9231 13.288C84.0911 13.288 83.4191 13.064 82.9071 12.616C82.4111 12.152 82.1631 11.576 82.1631 10.888C82.1631 10.184 82.4111 9.6 82.9071 9.136C83.4191 8.672 84.0911 8.44 84.9231 8.44C85.7391 8.44 86.3951 8.672 86.8911 9.136C87.4031 9.6 87.6591 10.184 87.6591 10.888C87.6591 11.576 87.4031 12.152 86.8911 12.616C86.3951 13.064 85.7391 13.288 84.9231 13.288ZM87.2511 14.536V28H82.5471V14.536H87.2511ZM97.8739 23.992V28H95.8339C92.3939 28 90.6739 26.296 90.6739 22.888V18.448H89.0179V14.536H90.6739V11.272H95.4019V14.536H97.8499V18.448H95.4019V22.96C95.4019 23.328 95.4819 23.592 95.6419 23.752C95.8179 23.912 96.1059 23.992 96.5059 23.992H97.8739ZM106.296 28.168C104.952 28.168 103.744 27.888 102.672 27.328C101.616 26.768 100.784 25.968 100.176 24.928C99.5675 23.888 99.2635 22.664 99.2635 21.256C99.2635 19.864 99.5675 18.648 100.176 17.608C100.8 16.568 101.64 15.768 102.696 15.208C103.768 14.648 104.976 14.368 106.32 14.368C107.664 14.368 108.864 14.648 109.92 15.208C110.992 15.768 111.832 16.568 112.44 17.608C113.064 18.648 113.376 19.864 113.376 21.256C113.376 22.648 113.064 23.872 112.44 24.928C111.832 25.968 110.992 26.768 109.92 27.328C108.848 27.888 107.64 28.168 106.296 28.168ZM106.296 24.088C106.952 24.088 107.496 23.848 107.928 23.368C108.376 22.872 108.6 22.168 108.6 21.256C108.6 20.344 108.376 19.648 107.928 19.168C107.496 18.688 106.96 18.448 106.32 18.448C105.68 18.448 105.144 18.688 104.712 19.168C104.28 19.648 104.064 20.344 104.064 21.256C104.064 22.184 104.272 22.888 104.688 23.368C105.104 23.848 105.64 24.088 106.296 24.088Z" fill="#0A0723"/>
</svg>
